<svg width="44" height="28" viewBox="0 0 44 28" fill="none" xmlns="http://www.w3.org/2000/svg">
<path d="M7.04 27L0.88 0.599999H6.36L10.76 22.44H11.08L15.88 0.599999H22.24L27.08 22.44H27.36L31.76 0.599999H37L30.8 27H23.68L19.12 5.32H18.84L14.2 27H7.04ZM40.4881 27.48C39.3948 27.48 38.5681 27.24 38.0081 26.76C37.4481 26.28 37.1681 25.5467 37.1681 24.56C37.1681 23.52 37.4481 22.76 38.0081 22.28C38.5681 21.8 39.3948 21.56 40.4881 21.56C41.6081 21.56 42.4481 21.8 43.0081 22.28C43.5948 22.76 43.8881 23.52 43.8881 24.56C43.8881 26.5067 42.7548 27.48 40.4881 27.48Z" fill="#4E28FE"/>
</svg>
